<svg width="36" height="36" viewBox="0 0 36 36" fill="none" xmlns="http://www.w3.org/2000/svg">
<path d="M11.25 15.75V20.25H14.25L18 24V12L14.25 15.75H11.25ZM16.5 15.6225V20.3775L14.8725 18.75H12.75V17.25H14.8725L16.5 15.6225ZM21.375 18C21.375 16.6725 20.61 15.5325 19.5 14.9775V21.015C20.61 20.4675 21.375 19.3275 21.375 18ZM19.5 11.4225V12.9675C21.6675 13.6125 23.25 15.6225 23.25 18C23.25 20.3775 21.6675 22.3875 19.5 23.0325V24.5775C22.5075 23.895 24.75 21.21 24.75 18C24.75 14.79 22.5075 12.105 19.5 11.4225Z" fill="#7F8284"/>
</svg>
