<svg width="16" height="15" viewBox="0 0 16 15" fill="none" xmlns="http://www.w3.org/2000/svg">
<path d="M6.875 1.875C7.085 1.875 7.25 2.04 7.25 2.25V3.75H11.75V8.25H13.25C13.46 8.25 13.625 8.415 13.625 8.625C13.625 8.835 13.46 9 13.25 9H11.75V13.5H10.16C9.65 12.1875 8.3675 11.25 6.875 11.25C5.3825 11.25 4.1 12.1875 3.59 13.5H2V11.91C3.3125 11.4 4.25 10.1175 4.25 8.625C4.25 7.1325 3.32 5.85 2.0075 5.34L2 3.75H6.5V2.25C6.5 2.04 6.665 1.875 6.875 1.875ZM6.875 0.375C5.84 0.375 5 1.215 5 2.25H2C1.175 2.25 0.5075 2.925 0.5075 3.75V6.6H0.725C1.8425 6.6 2.75 7.5075 2.75 8.625C2.75 9.7425 1.8425 10.65 0.725 10.65H0.5V13.5C0.5 14.325 1.175 15 2 15H4.85V14.775C4.85 13.6575 5.7575 12.75 6.875 12.75C7.9925 12.75 8.9 13.6575 8.9 14.775V15H11.75C12.575 15 13.25 14.325 13.25 13.5V10.5C14.285 10.5 15.125 9.66 15.125 8.625C15.125 7.59 14.285 6.75 13.25 6.75V3.75C13.25 2.925 12.575 2.25 11.75 2.25H8.75C8.75 1.215 7.91 0.375 6.875 0.375Z" fill="#292A2C"/>
</svg>
