<svg width="40" height="28" viewBox="0 0 40 28" fill="none" xmlns="http://www.w3.org/2000/svg">
<circle cx="21" cy="14" r="14" fill="#D3EFE8"/>
<path d="M27.6835 5.69C27.6835 5.87 27.6047 5.96 27.4469 5.96C26.9343 5.96 26.5596 6.06 26.323 6.26C26.1061 6.44 25.8498 6.92 25.554 7.7L24.7851 9.76999C24.5484 10.39 24.1738 11.46 23.6611 12.98C23.1682 14.5 22.6753 16.03 22.1823 17.57C21.8274 18.67 21.4725 19.77 21.1176 20.87L20.7331 22.1C20.5162 22.7 20.3584 23 20.2599 23H19.1655C19.0275 22.96 18.6824 22.07 18.1304 20.33C17.6768 18.99 17.1149 17.41 16.4445 15.59C15.7149 13.61 14.8868 11.43 13.9601 9.04999L11.5052 15.53L9.05039 22.55C9.01095 22.71 8.93208 22.86 8.81378 23H7.71945C7.54199 23 7.36453 22.75 7.18707 22.25C7.02933 21.67 6.9406 21.33 6.92089 21.23C6.66456 20.37 6.1519 18.82 5.38291 16.58C4.69279 14.54 4.18014 13.05 3.84494 12.11L3.34214 10.7C2.59287 8.57999 2.07035 7.28 1.77459 6.8C1.41967 6.24 0.936587 5.96 0.325341 5.96C0.207035 5.96 0.108447 5.93 0.0295764 5.87C0.00985881 5.85 0 5.83 0 5.81V5.21C0 5.15 0.0295764 5.09 0.0887293 5.03C0.108447 5.03 0.138023 5.02 0.177459 5H7.51241C7.65044 5 7.71945 5.07 7.71945 5.21V5.75C7.71945 5.89 7.57157 5.96 7.2758 5.96C6.50682 5.96 5.95472 6.03 5.61952 6.17C5.30404 6.31 5.1463 6.63 5.1463 7.13C5.1463 7.57 5.45192 8.78999 6.06317 10.79C6.3195 11.63 6.90117 13.45 7.80818 16.25L8.81378 19.19L9.61234 17.24L13.6939 5.63C13.7728 5.37 13.8516 5.18 13.9305 5.06C13.9305 5.04 13.9404 5.02 13.9601 5H15.1136C15.153 5 15.222 5.13 15.3206 5.39C15.4389 5.65 15.5276 5.87 15.5868 6.05L20.2894 19.19C21.1373 16.69 21.8373 14.58 22.3894 12.86C23.4738 9.52 24.0161 7.55 24.0161 6.95C24.0161 6.29 23.3752 5.96 22.0936 5.96C21.8176 5.96 21.6795 5.9 21.6795 5.78V5.18C21.6795 5.06 21.7781 5 21.9753 5H27.4469C27.6047 5 27.6835 5.09 27.6835 5.27V5.69Z" fill="#199577"/>
<path d="M36.9537 13.61C36.9537 11.05 36.2734 9.08999 34.9129 7.73C34.2031 7.01 33.3848 6.55 32.4581 6.35C31.5511 6.13 30.1413 6.02 28.2287 6.02L28.1695 8.68999V18.8L28.2287 21.62C30.3582 21.62 31.837 21.49 32.6651 21.23C33.4933 20.95 34.2228 20.48 34.8538 19.82C35.5045 19.16 36.0171 18.28 36.3917 17.18C36.7664 16.08 36.9537 14.89 36.9537 13.61ZM40.0001 13.7C40.0001 16.48 39.1916 18.68 37.5748 20.3C35.9777 21.9 33.7496 22.7 30.8905 22.7H23.1711C22.9739 22.7 22.8556 22.61 22.8162 22.43V21.86C22.8162 21.74 22.9049 21.68 23.0823 21.68H23.526C24.3344 21.68 24.8471 21.58 25.064 21.38C25.2809 21.16 25.4287 20.71 25.5076 20.03C25.5865 19.33 25.6259 18.15 25.6259 16.49V11.21C25.6259 8.25 25.4386 6.61 25.064 6.29C24.8274 6.05 24.3739 5.93 23.7035 5.93H23.0823C22.964 5.85 22.9049 5.78 22.9049 5.72V5.18C22.9049 5.06 23.0232 5 23.2598 5H31.2159C33.8975 5 36.027 5.8 37.6044 7.4C39.2015 8.97999 40.0001 11.08 40.0001 13.7Z" fill="#199577"/>
</svg>
