<svg width="24" height="27" viewBox="0 0 24 27" fill="none" xmlns="http://www.w3.org/2000/svg">
<path d="M13 7.6097H11V11.9581H7V14.1323H11V18.4807H13V14.1323H17V11.9581H13V7.6097ZM12 2.17419C6.48 2.17419 2 7.04441 2 13.0452C2 19.046 6.48 23.9162 12 23.9162C17.52 23.9162 22 19.046 22 13.0452C22 7.04441 17.52 2.17419 12 2.17419ZM12 21.742C7.59 21.742 4 17.8393 4 13.0452C4 8.2511 7.59 4.3484 12 4.3484C16.41 4.3484 20 8.2511 20 13.0452C20 17.8393 16.41 21.742 12 21.742Z" fill="black" fill-opacity="0.54"/>
</svg>
